<?xml version='1.0' encoding='utf-8'?>
<svg xmlns="http://www.w3.org/2000/svg" viewBox="68.355469 218.386719 125.363281 125.37500000000003" width="512" height="512" version="1.1"><defs><linearGradient id="grad_bright4" x1="0%" y1="0%" x2="100%" y2="0%"><stop offset="0%" style="stop-color:#ff4d4d;stop-opacity:1" /><stop offset="100%" style="stop-color:#3399ff;stop-opacity:1" /></linearGradient></defs><path d="M 193.523438 295.113281 C 193.335938 302.992188 186.875 309.386719 178.996094 309.5 C 175.757812 309.546875 172.75 308.546875 170.296875 306.820312 C 168.648438 305.660156 166.375 306.855469 166.375 308.875 L 166.375 329.5625 C 166.375 337.40625 160.015625 343.761719 152.171875 343.761719 L 82.554688 343.761719 C 74.710938 343.761719 68.355469 337.40625 68.355469 329.5625 L 68.355469 308.875 C 68.355469 306.855469 70.628906 305.660156 72.277344 306.820312 C 74.730469 308.546875 77.734375 309.546875 80.976562 309.5 C 88.855469 309.386719 95.316406 302.988281 95.503906 295.113281 C 95.703125 286.800781 89.023438 280 80.757812 280 C 77.597656 280 74.671875 280.992188 72.273438 282.683594 C 70.625 283.84375 68.355469 282.640625 68.355469 280.628906 L 68.355469 259.945312 C 68.355469 252.101562 74.714844 245.746094 82.554688 245.746094 L 103.238281 245.746094 C 105.253906 245.746094 106.457031 243.472656 105.292969 241.824219 C 103.601562 239.425781 102.609375 236.5 102.609375 233.335938 C 102.609375 225.066406 109.414062 218.386719 117.730469 218.59375 C 125.609375 218.785156 132 225.253906 132.109375 233.132812 C 132.152344 236.367188 131.15625 239.371094 129.429688 241.820312 C 128.269531 243.46875 129.464844 245.742188 131.484375 245.742188 L 152.171875 245.742188 C 160.015625 245.742188 166.375 252.101562 166.375 259.941406 L 166.375 280.625 C 166.375 282.640625 168.648438 283.84375 170.292969 282.679688 C 172.691406 280.988281 175.617188 279.996094 178.777344 279.996094 C 187.042969 279.996094 193.71875 286.796875 193.523438 295.109375 " fill="url(#grad_bright4)" fill-rule="nonzero" /></svg>